<?xml version="1.0" ?><svg id="Layer_1" style="enable-background:new 0 0 128 128;" version="1.1" viewBox="0 0 128 128" xml:space="preserve" xmlns="http://www.w3.org/2000/svg" xmlns:xlink="http://www.w3.org/1999/xlink"><style type="text/css">
	.st0{fill:none;stroke:#1D1952;stroke-width:4;stroke-linecap:round;stroke-miterlimit:10;}
	.st1{fill:#F73959;}
	.st2{opacity:0.5;fill:#C02344;}
	.st3{fill:none;stroke:#FFFFFF;stroke-width:4;stroke-linecap:round;stroke-linejoin:round;stroke-miterlimit:10;}
	.st4{fill:#F95F80;}
	.st5{fill:#FFFFFF;}
	.st6{fill:#1D1952;}
	.st7{fill:#EF8FA9;}
	.st8{fill:none;stroke:#AAAAE5;stroke-width:4;stroke-linecap:round;stroke-miterlimit:10;}
	.st9{fill:#AAAAE5;}
	.st10{fill:#FFCE00;}
	.st11{fill:#8E072B;}
	.st12{opacity:0.5;fill:#F73959;}
	.st13{fill:none;stroke:#C02344;stroke-width:4;stroke-linecap:round;stroke-linejoin:round;stroke-miterlimit:10;}
	.st14{fill:none;stroke:#FFAA00;stroke-width:4;stroke-linecap:round;stroke-linejoin:round;stroke-miterlimit:10;}
	.st15{fill:#FFAA00;}
	.st16{fill:none;stroke:#FFFFFF;stroke-width:3;stroke-linecap:round;stroke-linejoin:round;stroke-miterlimit:10;}
	.st17{fill:none;stroke:#1D1952;stroke-width:3;stroke-linecap:round;stroke-miterlimit:10;}
	.st18{fill:none;stroke:#C02344;stroke-width:6;stroke-linecap:round;stroke-linejoin:round;stroke-miterlimit:10;}
	.st19{fill:none;stroke:#AAAAE5;stroke-width:4;stroke-linecap:round;stroke-linejoin:round;stroke-miterlimit:10;}
	.st20{fill:#E87498;}
	.st21{fill:none;stroke:#1D1952;stroke-width:4;stroke-miterlimit:10;}
	.st22{fill:none;stroke:#FFAA00;stroke-width:4;stroke-linecap:round;stroke-miterlimit:10;}
	.st23{fill:#7A61F7;}
	.st24{fill:none;stroke:#FFCE00;stroke-width:4;stroke-linecap:round;stroke-miterlimit:10;}
</style><g><path class="st0" d="M117,89.5V70.9"/><path class="st1" d="M99.1,21.1C76,13.7,64,29.7,64,29.7s-12-16-35.1-8.6c-29,9.3-32,47.6-7,70.9c19.1,17.7,33.6,25,39.3,27.5   c1.8,0.7,3.7,0.7,5.5,0c5.8-2.4,20.2-9.7,39.3-27.5C131.1,68.7,128.1,30.4,99.1,21.1z"/><path class="st2" d="M108.1,83c-11.6,10.8-21.6,17.7-28.8,22c-8.2,4.8-18.3,4.8-26.5,0c-7.3-4.3-17.2-11.2-28.8-22   C11.3,71.3,5.8,55.7,7.2,42C1.7,57.5,6.4,77.6,21.9,92c19.1,17.7,33.6,25,39.3,27.5c1.8,0.7,3.7,0.7,5.5,0   c5.8-2.4,20.2-9.7,39.3-27.5c9.8-9.1,15.2-20.4,16.6-31.5C120,68.5,115.2,76.4,108.1,83z"/><path class="st3" d="M39.6,27.2c0.4,0,0.8,0,1.2,0"/><path class="st3" d="M25,31.7c1.9-1.2,4.1-2.2,6.4-3"/><path class="st3" d="M95.6,28.4c0.4,0.1,0.7,0.2,1.1,0.3"/><path class="st3" d="M79.6,28.4c2.2-0.7,4.7-1.2,7.6-1.2"/><g><path class="st0" d="M34,89v0.5c0,6.4-5.1,11.5-11.5,11.5h0C16.1,101,11,95.9,11,89.5V70"/><path class="st0" d="M34,89c-2-3-6-3-6-3"/><line class="st0" x1="33" x2="32.8" y1="80" y2="86.6"/><line class="st0" x1="36" x2="33.8" y1="81" y2="87.6"/><path class="st0" d="M39,83c-0.7,2.3-2.1,4.4-5,6"/></g><g><path class="st0" d="M94,89v0.5c0,6.4,5.1,11.5,11.5,11.5h0c6.4,0,11.5-5.1,11.5-11.5"/><path class="st0" d="M94,89c2-3,6-3,6-3"/><line class="st0" x1="95" x2="95.2" y1="80" y2="86.6"/><line class="st0" x1="92" x2="94.2" y1="81" y2="87.6"/><path class="st0" d="M89,83c0.7,2.3,2.1,4.4,5,6"/></g><circle class="st6" cx="67" cy="78" r="12"/><path class="st7" d="M67,90c3.1,0,5.9-1.2,8-3.1c-0.4-4.1-3.8-7.3-8-7.3s-7.6,3.2-8,7.3C61.1,88.8,63.9,90,67,90z"/><g><circle class="st5" cx="42" cy="56" r="14"/><circle class="st6" cx="42" cy="56" r="10"/><path class="st3" d="M44.3,50.4c0.7,0.3,1.4,0.7,2,1.3c0.6,0.6,1,1.3,1.3,2"/><path class="st3" d="M37.8,60.2c-0.4-0.4-0.6-0.7-0.9-1.1"/></g><g><circle class="st5" cx="92" cy="56" r="14"/><circle class="st6" cx="92" cy="56" r="10"/><path class="st3" d="M94.3,50.4c0.7,0.3,1.4,0.7,2,1.3c0.6,0.6,1,1.3,1.3,2"/><path class="st3" d="M87.8,60.2c-0.4-0.4-0.6-0.7-0.9-1.1"/></g><circle class="st7" cx="103.5" cy="12.5" r="4.5"/><circle class="st7" cx="38" cy="11" r="3"/><circle class="st1" cx="114.5" cy="18.5" r="2.5"/><circle class="st1" cx="23" cy="11" r="6"/><circle class="st7" cx="72.5" cy="14.5" r="2.5"/></g></svg>